<svg width="241" height="56" viewBox="0 0 241 56" fill="none" xmlns="http://www.w3.org/2000/svg">
<path d="M75.9047 25H74.1547L70.6 20.0029L69.0414 21.5273V25H67.7153V14.9785H69.0414V19.9482L73.9291 14.9785H75.7202L71.5229 19.0938L75.9047 25Z" fill="white"/>
<path d="M78.1743 18.6152C78.7485 17.9271 79.4389 17.583 80.2455 17.583C81.1935 17.583 81.9272 17.9202 82.4467 18.5947C82.9662 19.2646 83.226 20.1715 83.226 21.3154C83.226 22.5049 82.9343 23.446 82.351 24.1387C81.7722 24.8268 81.0408 25.1709 80.1567 25.1709C79.3728 25.1709 78.712 24.9271 78.1743 24.4395V27.7891H76.8823V17.7471H78.1743V18.6152ZM78.1743 23.2773C78.7257 23.8652 79.3592 24.1592 80.0746 24.1592C80.6306 24.1592 81.0727 23.9222 81.4008 23.4482C81.7289 22.9697 81.893 22.2588 81.893 21.3154C81.893 20.4222 81.7381 19.7454 81.4282 19.2852C81.1183 18.8203 80.6853 18.5879 80.1293 18.5879C79.4138 18.5879 78.7621 19.0026 78.1743 19.832V23.2773Z" fill="white"/>
<path d="M85.0854 26.75C85.7234 26.75 86.2452 26.1667 86.6508 25L85.2358 21.2676L83.9096 17.7471H85.3041L86.4321 21.0967L87.225 23.4209L89.1459 17.7471H90.5405L87.7993 25C87.5349 25.6927 87.3093 26.2259 87.1225 26.5996C86.9402 26.9779 86.6987 27.2946 86.3979 27.5498C86.1017 27.8096 85.7371 27.9395 85.3041 27.9395C84.9806 27.9395 84.7026 27.9076 84.4702 27.8438V26.6543C84.6707 26.7181 84.8758 26.75 85.0854 26.75Z" fill="white"/>
<path d="M91.6752 25V17.7471H97.5541V25H96.269V18.7588H92.9672V25H91.6752Z" fill="white"/>
<path d="M99.4682 25V17.7471H100.76V20.7549H104.062V17.7471H105.347V25H104.062V21.7666H100.76V25H99.4682Z" fill="white"/>
<path d="M110.344 25.1709C109.278 25.1709 108.421 24.8382 107.774 24.1729C107.127 23.5029 106.803 22.571 106.803 21.377C106.803 20.1921 107.115 19.2646 107.74 18.5947C108.369 17.9202 109.189 17.583 110.201 17.583C111.235 17.583 112.06 17.9134 112.675 18.5742C113.295 19.235 113.605 20.1693 113.605 21.377V21.6846H108.143C108.198 22.5231 108.428 23.1452 108.833 23.5508C109.244 23.9564 109.747 24.1592 110.344 24.1592C110.795 24.1592 111.201 24.0452 111.561 23.8174C111.926 23.585 112.117 23.2568 112.135 22.833H113.468C113.368 23.5804 113.028 24.1569 112.45 24.5625C111.875 24.9681 111.174 25.1709 110.344 25.1709ZM112.245 20.6729C112.14 19.9756 111.905 19.4538 111.54 19.1074C111.176 18.7611 110.729 18.5879 110.201 18.5879C109.686 18.5879 109.244 18.7611 108.874 19.1074C108.505 19.4492 108.271 19.971 108.17 20.6729H112.245Z" fill="white"/>
<path d="M115.054 25V17.7471H116.346V23.2637L119.593 17.7471H120.981V25H119.689V19.4834L116.442 25H115.054ZM120.038 14.8896C119.983 15.4548 119.771 15.8923 119.402 16.2021C119.037 16.512 118.572 16.667 118.007 16.667C117.438 16.667 116.97 16.512 116.606 16.2021C116.241 15.8877 116.036 15.4502 115.991 14.8896H116.831C116.941 15.5094 117.333 15.8193 118.007 15.8193C118.673 15.8193 119.069 15.5094 119.197 14.8896H120.038Z" fill="white"/>
<path d="M132.212 25H122.888V17.7471H124.18V23.9951H126.908V17.7471H128.193V23.9951H130.927V17.7471H132.212V25Z" fill="white"/>
<path d="M134.113 25V17.7471H135.405V23.2637L138.652 17.7471H140.039V25H138.747V19.4834L135.5 25H134.113Z" fill="white"/>
<path d="M141.947 25V17.7471H143.239V23.2637L146.486 17.7471H147.873V25H146.581V19.4834L143.334 25H141.947ZM146.93 14.8896C146.875 15.4548 146.664 15.8923 146.294 16.2021C145.93 16.512 145.465 16.667 144.9 16.667C144.33 16.667 143.863 16.512 143.498 16.2021C143.134 15.8877 142.929 15.4502 142.883 14.8896H143.724C143.833 15.5094 144.225 15.8193 144.9 15.8193C145.565 15.8193 145.962 15.5094 146.089 14.8896H146.93Z" fill="white"/>
<path d="M157.717 21.2197C158.61 21.6253 159.057 22.2178 159.057 22.9971C159.057 23.6214 158.784 24.141 158.237 24.5557C157.694 24.9658 156.929 25.1709 155.94 25.1709C155.033 25.1709 154.295 24.9749 153.725 24.583C153.155 24.1865 152.843 23.6966 152.789 23.1133H154.115C154.115 23.373 154.276 23.6123 154.6 23.8311C154.924 24.0498 155.361 24.1592 155.913 24.1592C156.478 24.1592 156.922 24.0521 157.246 23.8379C157.569 23.6191 157.731 23.3343 157.731 22.9834C157.731 22.6872 157.647 22.4411 157.478 22.2451C157.309 22.0492 157.1 21.9193 156.849 21.8555C156.603 21.7871 156.211 21.7529 155.673 21.7529H155.208V20.7754H155.673C156.475 20.7754 156.986 20.6683 157.205 20.4541C157.423 20.2354 157.533 19.987 157.533 19.709C157.533 18.9616 157.02 18.5879 155.995 18.5879C154.987 18.5879 154.45 18.8636 154.381 19.415H153.055C153.055 18.8818 153.317 18.4443 153.841 18.1025C154.365 17.7562 155.065 17.583 155.94 17.583C156.86 17.583 157.578 17.779 158.093 18.1709C158.608 18.5628 158.866 19.0664 158.866 19.6816C158.866 20.3743 158.483 20.887 157.717 21.2197Z" fill="white"/>
<path d="M165.093 23.0928V21.4863H164.211C162.343 21.4863 161.409 21.9945 161.409 23.0107C161.409 23.3799 161.545 23.6647 161.819 23.8652C162.092 24.0612 162.461 24.1592 162.926 24.1592C163.35 24.1592 163.76 24.0635 164.157 23.8721C164.553 23.6807 164.865 23.4209 165.093 23.0928ZM165.093 24.2549C164.437 24.8656 163.592 25.1709 162.557 25.1709C161.837 25.1709 161.245 24.9772 160.78 24.5898C160.315 24.1979 160.082 23.6943 160.082 23.0791C160.082 21.3838 161.543 20.5361 164.464 20.5361H165.093C165.093 20.0166 165.066 19.6406 165.011 19.4082C164.956 19.1712 164.804 18.9753 164.553 18.8203C164.303 18.6654 163.904 18.5879 163.357 18.5879C162.208 18.5879 161.616 18.998 161.58 19.8184H160.294C160.39 18.3281 161.434 17.583 163.425 17.583C164.355 17.583 165.08 17.7676 165.599 18.1367C166.119 18.5059 166.378 19.2305 166.378 20.3105V25H165.093V24.2549Z" fill="white"/>
<path d="M171.232 25.1709C170.202 25.1709 169.377 24.8405 168.757 24.1797C168.142 23.5143 167.834 22.5801 167.834 21.377C167.834 20.1693 168.142 19.235 168.757 18.5742C169.377 17.9134 170.202 17.583 171.232 17.583C172.025 17.583 172.686 17.7835 173.214 18.1846C173.747 18.5856 174.062 19.1644 174.158 19.9209H172.831C172.813 19.488 172.649 19.1576 172.339 18.9297C172.034 18.7018 171.665 18.5879 171.232 18.5879C170.617 18.5879 170.118 18.8226 169.735 19.292C169.352 19.7568 169.161 20.4518 169.161 21.377C169.161 22.2975 169.352 22.9925 169.735 23.4619C170.118 23.9268 170.617 24.1592 171.232 24.1592C171.665 24.1592 172.034 24.0452 172.339 23.8174C172.649 23.5895 172.813 23.2614 172.831 22.833H174.158C174.062 23.5895 173.747 24.1683 173.214 24.5693C172.686 24.9704 172.025 25.1709 171.232 25.1709Z" fill="white"/>
<path d="M174.595 18.7588V17.7471H180.501V18.7588H178.191V25H176.906V18.7588H174.595Z" fill="white"/>
<path d="M182.997 18.6152C183.571 17.9271 184.261 17.583 185.068 17.583C186.016 17.583 186.749 17.9202 187.269 18.5947C187.789 19.2646 188.048 20.1715 188.048 21.3154C188.048 22.5049 187.757 23.446 187.173 24.1387C186.595 24.8268 185.863 25.1709 184.979 25.1709C184.195 25.1709 183.534 24.9271 182.997 24.4395V27.7891H181.705V17.7471H182.997V18.6152ZM182.997 23.2773C183.548 23.8652 184.181 24.1592 184.897 24.1592C185.453 24.1592 185.895 23.9222 186.223 23.4482C186.551 22.9697 186.715 22.2588 186.715 21.3154C186.715 20.4222 186.56 19.7454 186.25 19.2852C185.941 18.8203 185.508 18.5879 184.952 18.5879C184.236 18.5879 183.584 19.0026 182.997 19.832V23.2773Z" fill="white"/>
<path d="M192.437 17.583C193.471 17.583 194.296 17.9134 194.912 18.5742C195.531 19.235 195.841 20.1693 195.841 21.377C195.841 22.5801 195.531 23.5143 194.912 24.1797C194.296 24.8405 193.471 25.1709 192.437 25.1709C191.407 25.1709 190.582 24.8405 189.962 24.1797C189.347 23.5143 189.039 22.5801 189.039 21.377C189.039 20.1693 189.347 19.235 189.962 18.5742C190.582 17.9134 191.407 17.583 192.437 17.583ZM192.437 24.1592C193.052 24.1592 193.551 23.9268 193.934 23.4619C194.317 22.9925 194.508 22.2975 194.508 21.377C194.508 20.4518 194.317 19.7568 193.934 19.292C193.551 18.8226 193.052 18.5879 192.437 18.5879C191.822 18.5879 191.323 18.8226 190.94 19.292C190.557 19.7568 190.366 20.4518 190.366 21.377C190.366 22.2975 190.557 22.9925 190.94 23.4619C191.323 23.9268 191.822 24.1592 192.437 24.1592Z" fill="white"/>
<path d="M197.29 25V17.7471H198.582V23.2637L201.83 17.7471H203.217V25H201.925V19.4834L198.678 25H197.29ZM202.274 14.8896C202.219 15.4548 202.007 15.8923 201.638 16.2021C201.274 16.512 200.809 16.667 200.244 16.667C199.674 16.667 199.207 16.512 198.842 16.2021C198.478 15.8877 198.273 15.4502 198.227 14.8896H199.068C199.177 15.5094 199.569 15.8193 200.244 15.8193C200.909 15.8193 201.305 15.5094 201.433 14.8896H202.274Z" fill="white"/>
<path d="M214.209 25H205.124V17.7471H206.416V23.9951H209.144V17.7471H210.429V23.9951H213.164V17.7471H214.449V23.9951H215.501V26.9482H214.209V25Z" fill="white"/>
<path d="M216.609 25V17.7471H217.901V23.2637L221.148 17.7471H222.536V25H221.244V19.4834L217.997 25H216.609Z" fill="white"/>
<path d="M230.438 25H228.9L226.576 21.459L225.735 22.3408V25H224.443V17.7471H225.735V20.8438L228.531 17.7471H230.158L227.41 20.6045L230.438 25Z" fill="white"/>
<path d="M67.7153 30.9785H71.4545C72.2748 30.9785 72.9607 31.056 73.5121 31.2109C74.0681 31.3613 74.5079 31.6917 74.8315 32.2021C75.155 32.708 75.3168 33.2754 75.3168 33.9043C75.3168 34.916 74.9955 35.6839 74.353 36.208C73.7104 36.7321 72.7807 36.9941 71.5639 36.9941H69.0414V41H67.7153V30.9785ZM69.0414 35.8047H71.5776C72.4298 35.8047 73.0359 35.6452 73.3959 35.3262C73.7605 35.0072 73.9428 34.5469 73.9428 33.9453C73.9428 33.5443 73.8425 33.1888 73.642 32.8789C73.4415 32.569 73.1863 32.373 72.8764 32.291C72.5711 32.209 72.129 32.168 71.5502 32.168H69.0414V35.8047Z" fill="white"/>
<path d="M79.9653 41.1709C78.8989 41.1709 78.0421 40.8382 77.395 40.1729C76.7478 39.5029 76.4243 38.571 76.4243 37.377C76.4243 36.1921 76.7364 35.2646 77.3608 34.5947C77.9897 33.9202 78.81 33.583 79.8217 33.583C80.8562 33.583 81.6811 33.9134 82.2963 34.5742C82.9161 35.235 83.226 36.1693 83.226 37.377V37.6846H77.7641C77.8188 38.5231 78.0489 39.1452 78.4545 39.5508C78.8647 39.9564 79.3683 40.1592 79.9653 40.1592C80.4164 40.1592 80.822 40.0452 81.1821 39.8174C81.5467 39.585 81.7381 39.2568 81.7563 38.833H83.0893C82.989 39.5804 82.6495 40.1569 82.0707 40.5625C81.4965 40.9681 80.7947 41.1709 79.9653 41.1709ZM81.8657 36.6729C81.7608 35.9756 81.5261 35.4538 81.1616 35.1074C80.797 34.7611 80.3504 34.5879 79.8217 34.5879C79.3067 34.5879 78.8647 34.7611 78.4955 35.1074C78.1264 35.4492 77.8917 35.971 77.7914 36.6729H81.8657Z" fill="white"/>
<path d="M87.6147 41.1709C86.5847 41.1709 85.7599 40.8405 85.1401 40.1797C84.5248 39.5143 84.2172 38.5801 84.2172 37.377C84.2172 36.1693 84.5248 35.235 85.1401 34.5742C85.7599 33.9134 86.5847 33.583 87.6147 33.583C88.4077 33.583 89.0685 33.7835 89.5971 34.1846C90.1303 34.5856 90.4448 35.1644 90.5405 35.9209H89.2143C89.1961 35.488 89.032 35.1576 88.7221 34.9297C88.4168 34.7018 88.0476 34.5879 87.6147 34.5879C86.9995 34.5879 86.5004 34.8226 86.1176 35.292C85.7348 35.7568 85.5434 36.4518 85.5434 37.377C85.5434 38.2975 85.7348 38.9925 86.1176 39.4619C86.5004 39.9268 86.9995 40.1592 87.6147 40.1592C88.0476 40.1592 88.4168 40.0452 88.7221 39.8174C89.032 39.5895 89.1961 39.2614 89.2143 38.833H90.5405C90.4448 39.5895 90.1303 40.1683 89.5971 40.5693C89.0685 40.9704 88.4077 41.1709 87.6147 41.1709Z" fill="white"/>
<path d="M91.6752 41V33.7471H97.5541V41H96.269V34.7588H92.9672V41H91.6752Z" fill="white"/>
<path d="M99.8784 42.75C100.516 42.75 101.038 42.1667 101.444 41L100.029 37.2676L98.7026 33.7471H100.097L101.225 37.0967L102.018 39.4209L103.939 33.7471H105.333L102.592 41C102.328 41.6927 102.102 42.2259 101.915 42.5996C101.733 42.9779 101.492 43.2946 101.191 43.5498C100.895 43.8096 100.53 43.9395 100.097 43.9395C99.7735 43.9395 99.4955 43.9076 99.2631 43.8438V42.6543C99.4636 42.7181 99.6687 42.75 99.8784 42.75Z" fill="white"/>
<path d="M107.227 35.0938C107.459 34.6745 107.792 34.3464 108.225 34.1094C108.658 33.8678 109.105 33.7471 109.565 33.7471C110.581 33.7471 111.401 34.0752 112.026 34.7314C112.655 35.3877 112.969 36.2969 112.969 37.459C112.969 38.6165 112.655 39.5257 112.026 40.1865C111.401 40.8428 110.581 41.1709 109.565 41.1709C107.295 41.1709 106.161 39.6055 106.161 36.4746C106.161 34.5924 106.47 33.207 107.09 32.3184C107.715 31.4251 108.806 30.9785 110.365 30.9785C110.907 30.9785 111.247 30.9512 111.383 30.8965C111.525 30.8372 111.595 30.7142 111.595 30.5273H112.88C112.88 31.0059 112.819 31.3499 112.696 31.5596C112.577 31.7692 112.345 31.931 111.998 32.0449C111.657 32.1543 111.082 32.209 110.276 32.209C108.995 32.209 108.166 32.5234 107.788 33.1523C107.414 33.7767 107.227 34.4238 107.227 35.0938ZM109.565 40.1592C110.162 40.1592 110.656 39.9313 111.048 39.4756C111.44 39.0199 111.636 38.3477 111.636 37.459C111.636 36.5703 111.44 35.8981 111.048 35.4424C110.656 34.9867 110.162 34.7588 109.565 34.7588C108.968 34.7588 108.473 34.9867 108.081 35.4424C107.69 35.8981 107.494 36.5703 107.494 37.459C107.494 38.3477 107.69 39.0199 108.081 39.4756C108.473 39.9313 108.968 40.1592 109.565 40.1592Z" fill="white"/>
<path d="M115.054 33.7471H120.584V41H119.299V34.7588H116.346V38.5391C116.346 39.5736 116.182 40.2549 115.854 40.583C115.526 40.9066 115.068 41.0684 114.48 41.0684C114.129 41.0684 113.84 41.0456 113.612 41V39.9609C113.858 40.0293 114.097 40.0635 114.33 40.0635C114.612 40.0635 114.803 39.9632 114.904 39.7627C115.004 39.5622 115.054 39.1634 115.054 38.5664V33.7471Z" fill="white"/>
<path d="M122.492 41V33.7471H123.784V39.2637L127.031 33.7471H128.418V41H127.126V35.4834L123.879 41H122.492Z" fill="white"/>
<path d="M136.321 41H134.783L132.458 37.459L131.618 38.3408V41H130.326V33.7471H131.618V36.8438L134.414 33.7471H136.04L133.292 36.6045L136.321 41Z" fill="white"/>
<path d="M137.326 41V33.7471H138.618V39.2637L141.865 33.7471H143.252V41H141.96V35.4834L138.713 41H137.326Z" fill="white"/>
<path d="M150.375 35.1758H152.604C155.229 35.1758 156.541 36.1465 156.541 38.0879C156.541 39.0267 156.222 39.7467 155.584 40.248C154.946 40.7493 154.019 41 152.802 41H149.049V30.9785H155.53V32.168H150.375V35.1758ZM150.375 39.8105H152.789C154.374 39.8105 155.167 39.2363 155.167 38.0879C155.167 37.4909 154.983 37.0557 154.614 36.7822C154.249 36.5042 153.584 36.3652 152.618 36.3652H150.375V39.8105Z" fill="white"/>
<path d="M162.646 39.0928V37.4863H161.764C159.896 37.4863 158.961 37.9945 158.961 39.0107C158.961 39.3799 159.098 39.6647 159.372 39.8652C159.645 40.0612 160.014 40.1592 160.479 40.1592C160.903 40.1592 161.313 40.0635 161.709 39.8721C162.106 39.6807 162.418 39.4209 162.646 39.0928ZM162.646 40.2549C161.99 40.8656 161.144 41.1709 160.11 41.1709C159.39 41.1709 158.797 40.9772 158.332 40.5898C157.868 40.1979 157.635 39.6943 157.635 39.0791C157.635 37.3838 159.096 36.5361 162.017 36.5361H162.646C162.646 36.0166 162.619 35.6406 162.564 35.4082C162.509 35.1712 162.357 34.9753 162.106 34.8203C161.855 34.6654 161.456 34.5879 160.91 34.5879C159.761 34.5879 159.169 34.998 159.132 35.8184H157.847C157.943 34.3281 158.986 33.583 160.978 33.583C161.908 33.583 162.632 33.7676 163.152 34.1367C163.671 34.5059 163.931 35.2305 163.931 36.3105V41H162.646V40.2549Z" fill="white"/>
<path d="M175.169 41H165.845V33.7471H167.137V39.9951H169.865V33.7471H171.15V39.9951H173.884V33.7471H175.169V41Z" fill="white"/>
<path d="M183.065 41H181.527L179.203 37.459L178.362 38.3408V41H177.07V33.7471H178.362V36.8438L181.158 33.7471H182.785L180.037 36.6045L183.065 41Z" fill="white"/>
<path d="M187.009 33.583C188.044 33.583 188.869 33.9134 189.484 34.5742C190.104 35.235 190.414 36.1693 190.414 37.377C190.414 38.5801 190.104 39.5143 189.484 40.1797C188.869 40.8405 188.044 41.1709 187.009 41.1709C185.979 41.1709 185.154 40.8405 184.535 40.1797C183.919 39.5143 183.612 38.5801 183.612 37.377C183.612 36.1693 183.919 35.235 184.535 34.5742C185.154 33.9134 185.979 33.583 187.009 33.583ZM187.009 40.1592C187.624 40.1592 188.123 39.9268 188.506 39.4619C188.889 38.9925 189.081 38.2975 189.081 37.377C189.081 36.4518 188.889 35.7568 188.506 35.292C188.123 34.8226 187.624 34.5879 187.009 34.5879C186.394 34.5879 185.895 34.8226 185.512 35.292C185.129 35.7568 184.938 36.4518 184.938 37.377C184.938 38.2975 185.129 38.9925 185.512 39.4619C185.895 39.9268 186.394 40.1592 187.009 40.1592Z" fill="white"/>
<path d="M193.155 34.6152C193.729 33.9271 194.419 33.583 195.226 33.583C196.174 33.583 196.908 33.9202 197.427 34.5947C197.947 35.2646 198.206 36.1715 198.206 37.3154C198.206 38.5049 197.915 39.446 197.331 40.1387C196.753 40.8268 196.021 41.1709 195.137 41.1709C194.353 41.1709 193.692 40.9271 193.155 40.4395V43.7891H191.863V33.7471H193.155V34.6152ZM193.155 39.2773C193.706 39.8652 194.34 40.1592 195.055 40.1592C195.611 40.1592 196.053 39.9222 196.381 39.4482C196.709 38.9697 196.873 38.2588 196.873 37.3154C196.873 36.4222 196.719 35.7454 196.409 35.2852C196.099 34.8203 195.666 34.5879 195.11 34.5879C194.394 34.5879 193.743 35.0026 193.155 35.832V39.2773Z" fill="white"/>
<path d="M198.958 34.7588V33.7471H204.865V34.7588H202.554V41H201.269V34.7588H198.958Z" fill="white"/>
<path d="M209.007 33.583C210.042 33.583 210.867 33.9134 211.482 34.5742C212.102 35.235 212.412 36.1693 212.412 37.377C212.412 38.5801 212.102 39.5143 211.482 40.1797C210.867 40.8405 210.042 41.1709 209.007 41.1709C207.977 41.1709 207.152 40.8405 206.533 40.1797C205.917 39.5143 205.61 38.5801 205.61 37.377C205.61 36.1693 205.917 35.235 206.533 34.5742C207.152 33.9134 207.977 33.583 209.007 33.583ZM209.007 40.1592C209.622 40.1592 210.122 39.9268 210.504 39.4619C210.887 38.9925 211.079 38.2975 211.079 37.377C211.079 36.4518 210.887 35.7568 210.504 35.292C210.122 34.8226 209.622 34.5879 209.007 34.5879C208.392 34.5879 207.893 34.8226 207.51 35.292C207.127 35.7568 206.936 36.4518 206.936 37.377C206.936 38.2975 207.127 38.9925 207.51 39.4619C207.893 39.9268 208.392 40.1592 209.007 40.1592Z" fill="white"/>
<path d="M216.8 41.1709C215.77 41.1709 214.945 40.8405 214.326 40.1797C213.71 39.5143 213.403 38.5801 213.403 37.377C213.403 36.1693 213.71 35.235 214.326 34.5742C214.945 33.9134 215.77 33.583 216.8 33.583C217.593 33.583 218.254 33.7835 218.783 34.1846C219.316 34.5856 219.63 35.1644 219.726 35.9209H218.4C218.382 35.488 218.218 35.1576 217.908 34.9297C217.602 34.7018 217.233 34.5879 216.8 34.5879C216.185 34.5879 215.686 34.8226 215.303 35.292C214.92 35.7568 214.729 36.4518 214.729 37.377C214.729 38.2975 214.92 38.9925 215.303 39.4619C215.686 39.9268 216.185 40.1592 216.8 40.1592C217.233 40.1592 217.602 40.0452 217.908 39.8174C218.218 39.5895 218.382 39.2614 218.4 38.833H219.726C219.63 39.5895 219.316 40.1683 218.783 40.5693C218.254 40.9704 217.593 41.1709 216.8 41.1709Z" fill="white"/>
<path d="M220.164 34.7588V33.7471H226.07V34.7588H223.759V41H222.474V34.7588H220.164Z" fill="white"/>
<path d="M231.867 39.0928V37.4863H230.985C229.116 37.4863 228.182 37.9945 228.182 39.0107C228.182 39.3799 228.319 39.6647 228.592 39.8652C228.866 40.0612 229.235 40.1592 229.7 40.1592C230.123 40.1592 230.534 40.0635 230.93 39.8721C231.327 39.6807 231.639 39.4209 231.867 39.0928ZM231.867 40.2549C231.21 40.8656 230.365 41.1709 229.331 41.1709C228.61 41.1709 228.018 40.9772 227.553 40.5898C227.088 40.1979 226.856 39.6943 226.856 39.0791C226.856 37.3838 228.317 36.5361 231.238 36.5361H231.867C231.867 36.0166 231.839 35.6406 231.785 35.4082C231.73 35.1712 231.577 34.9753 231.327 34.8203C231.076 34.6654 230.677 34.5879 230.13 34.5879C228.982 34.5879 228.389 34.998 228.353 35.8184H227.068C227.164 34.3281 228.207 33.583 230.199 33.583C231.128 33.583 231.853 33.7676 232.372 34.1367C232.892 34.5059 233.152 35.2305 233.152 36.3105V41H231.867V40.2549Z" fill="white"/>
<path d="M235.066 41V33.7471H236.358V36.7549H239.66V33.7471H240.945V41H239.66V37.7666H236.358V41H235.066Z" fill="white"/>
<path d="M46.1449 7.04017L24.1309 0.567998C23.823 0.477334 23.4943 0.477334 23.186 0.567998L1.17178 7.04017C0.476274 7.24459 0 7.87193 0 8.5835V32.3147C0 35.4014 1.27503 38.5611 3.78969 41.7061C5.71035 44.108 8.3674 46.52 11.6872 48.875C17.264 52.8311 22.7555 55.258 22.9865 55.3593C23.2003 55.4531 23.4293 55.5 23.6584 55.5C23.8873 55.5 24.1164 55.4532 24.3302 55.3593C24.5612 55.258 30.0526 52.8311 35.6294 48.875C38.9491 46.52 41.6061 44.108 43.5268 41.7061C46.0414 38.5612 47.3165 35.4015 47.3165 32.3147V8.5835C47.3166 7.87193 46.8404 7.24459 46.1449 7.04017ZM44.0282 32.3147C44.0282 37.7773 38.4353 42.8994 33.7435 46.2345C29.5372 49.2244 25.2713 51.346 23.6585 52.1082C22.0456 51.346 17.7796 49.2244 13.5733 46.2345C8.88138 42.8994 3.28842 37.7773 3.28842 32.3147V9.78232L23.6584 3.79355L44.0282 9.78232V32.3147Z" fill="white"/>
<path d="M24.2105 28.2144V33.2004H21.5105V30.5904H12.6185V33.2004H9.91849L9.93649 28.2144H10.4405C11.1965 28.1904 11.7305 27.6384 12.0425 26.5584C12.3545 25.4784 12.5465 23.9364 12.6185 21.9324L12.7625 17.9904H22.4465V28.2144H24.2105ZM15.1925 22.2024C15.1325 23.7024 15.0065 24.9624 14.8145 25.9824C14.6225 26.9904 14.3285 27.7344 13.9325 28.2144H19.5665V20.3664H15.2465L15.1925 22.2024Z" fill="white"/>
<path d="M32.1315 30.8064C30.8475 30.8064 29.6835 30.5304 28.6395 29.9784C27.6075 29.4144 26.7915 28.6404 26.1915 27.6564C25.6035 26.6604 25.3095 25.5384 25.3095 24.2904C25.3095 23.0424 25.6035 21.9264 26.1915 20.9424C26.7915 19.9464 27.6075 19.1724 28.6395 18.6204C29.6835 18.0564 30.8535 17.7744 32.1495 17.7744C33.2415 17.7744 34.2255 17.9664 35.1015 18.3504C35.9895 18.7344 36.7335 19.2864 37.3335 20.0064L35.4615 21.7344C34.6095 20.7504 33.5535 20.2584 32.2935 20.2584C31.5135 20.2584 30.8175 20.4324 30.2055 20.7804C29.5935 21.1164 29.1135 21.5904 28.7655 22.2024C28.4295 22.8144 28.2615 23.5104 28.2615 24.2904C28.2615 25.0704 28.4295 25.7664 28.7655 26.3784C29.1135 26.9904 29.5935 27.4704 30.2055 27.8184C30.8175 28.1544 31.5135 28.3224 32.2935 28.3224C33.5535 28.3224 34.6095 27.8244 35.4615 26.8284L37.3335 28.5564C36.7335 29.2884 35.9895 29.8464 35.1015 30.2304C34.2135 30.6144 33.2235 30.8064 32.1315 30.8064Z" fill="white"/>
<rect x="33.0319" y="39.7252" width="10.0077" height="10.0077" rx="5.00383" fill="#5283C4" stroke="white" stroke-width="2"/>
</svg>
