<svg width="14" height="14" viewBox="0 0 14 14" fill="none" xmlns="http://www.w3.org/2000/svg">
<g clip-path="url(#clip0)">
<path d="M13.8396 6.71726C13.8394 6.71712 13.8393 6.71695 13.8391 6.7168L10.9816 4.20761C10.7675 4.01964 10.4213 4.02034 10.2082 4.20925C9.9951 4.39814 9.99592 4.70366 10.21 4.89166L12.1285 6.57629H0.546875C0.244836 6.57629 0 6.79232 0 7.05883C0 7.32533 0.244836 7.54136 0.546875 7.54136H12.1285L10.21 9.226C9.99594 9.41399 9.99512 9.71951 10.2082 9.9084C10.4213 10.0973 10.7676 10.098 10.9816 9.91004L13.8391 7.40085C13.8393 7.4007 13.8394 7.40054 13.8396 7.40039C14.0538 7.21177 14.0531 6.90526 13.8396 6.71726Z" fill="white"/>
</g>
<defs>
<clipPath id="clip0">
<rect width="14" height="12.3529" fill="white" transform="translate(0 0.882355)"/>
</clipPath>
</defs>
</svg>
